<svg width="510" height="79" fill="none" xmlns="http://www.w3.org/2000/svg"><path d="M12.84 78.352c-3.904 0-6.848-.64-8.832-1.92C2.024 75.152 1 73.04.936 70.096c0-.64.352-.96 1.056-.96.576 0 1.44.16 2.592.48C5.8 69.872 8.072 70 11.4 70c5.632 0 10.816-.576 15.552-1.728 4.736-1.216 8.832-2.816 12.288-4.8 3.52-2.048 6.24-4.32 8.16-6.816 1.92-2.56 2.88-5.216 2.88-7.968 0-2.496-.768-4.48-2.304-5.952-1.472-1.536-3.456-2.688-5.952-3.456-2.432-.832-5.12-1.376-8.064-1.632a96.467 96.467 0 00-8.544-.384c-1.216 0-2.432.032-3.648.096h-3.456a556.486 556.486 0 00-4.128 15.072A478.957 478.957 0 019.96 67.696c-1.92 0-3.584-.512-4.992-1.536s-2.112-2.272-2.112-3.744c0-.576.096-1.312.288-2.208.256-.96.608-2.08 1.056-3.36.384-1.216 1.024-3.232 1.92-6.048.96-2.816 2.08-6.144 3.36-9.984a475.14 475.14 0 014.224-12.096c1.6-4.288 3.232-8.48 4.896-12.576 1.728-4.096 3.424-7.776 5.088-11.04-2.56.576-4.672 1.248-6.336 2.016-1.664.768-2.976 1.44-3.936 2.016-.96.576-1.696.864-2.208.864-.384 0-.896-.224-1.536-.672-.576-.448-1.12-.96-1.632-1.536-.448-.576-.672-1.088-.672-1.536A111.888 111.888 0 0118.12 2.512C21.832 1.424 26.312.88 31.56.88c2.304 0 4.832.192 7.584.576a27.552 27.552 0 017.872 2.112c2.496 1.024 4.544 2.592 6.144 4.704 1.664 2.048 2.496 4.8 2.496 8.256 0 2.752-.608 5.152-1.824 7.2-1.152 1.984-2.72 3.712-4.704 5.184a32.008 32.008 0 01-6.528 3.552 62.965 62.965 0 01-7.008 2.208c5.312.704 9.472 1.92 12.48 3.648 3.008 1.728 5.12 3.648 6.336 5.76 1.216 2.112 1.824 4.128 1.824 6.048 0 3.776-.992 7.168-2.976 10.176s-4.608 5.632-7.872 7.872c-3.2 2.24-6.752 4.096-10.656 5.568-3.84 1.536-7.68 2.688-11.52 3.456-3.84.768-7.296 1.152-10.368 1.152zm6.432-44.64a64.313 64.313 0 0010.56-1.248c3.456-.704 6.56-1.728 9.312-3.072 2.816-1.408 5.056-3.2 6.72-5.376 1.664-2.24 2.496-4.992 2.496-8.256 0-3.072-.832-5.44-2.496-7.104C44.2 6.992 42.024 5.84 39.336 5.2c-2.688-.64-5.568-.96-8.64-.96h-.384c-2.176 4.288-4.16 8.96-5.952 14.016a312.508 312.508 0 00-5.088 15.456zm47.462 40.8c-2.112 0-3.936-.704-5.472-2.112-1.6-1.408-2.4-3.52-2.4-6.336 0-2.24.511-4.672 1.535-7.296 1.025-2.624 2.433-5.216 4.224-7.776a39.575 39.575 0 016.145-6.912c2.303-2.112 4.767-3.808 7.391-5.088 2.624-1.28 5.249-1.92 7.873-1.92 2.751 0 5.088.704 7.007 2.112 1.92 1.408 2.88 3.264 2.88 5.568 0 1.728-.608 2.976-1.823 3.744-1.216.768-2.656.992-4.32.672.127-.576.224-1.152.287-1.728a8.39 8.39 0 00.192-1.824c0-1.28-.255-2.432-.767-3.456-.513-1.024-1.6-1.536-3.264-1.536-1.792 0-3.616.608-5.472 1.824-1.856 1.216-3.648 2.816-5.376 4.8-1.664 1.92-3.168 4.064-4.512 6.432-1.344 2.304-2.4 4.576-3.168 6.816-.769 2.24-1.153 4.256-1.153 6.048 0 2.048.737 3.072 2.209 3.072s3.103-.704 4.895-2.112c1.793-1.472 3.585-3.296 5.377-5.472a125.898 125.898 0 005.28-6.624 305.202 305.202 0 014.32-5.856c.192-.32.448-.48.767-.48.257.064.737.224 1.44.48a6.326 6.326 0 012.113.96c.64.448.96 1.024.96 1.728 0 .832-.448 1.984-1.344 3.456a124.36 124.36 0 00-2.785 4.608c-.895 1.664-1.343 3.2-1.343 4.608 0 .832.223 1.632.671 2.4.448.704 1.184 1.056 2.209 1.056 1.535 0 3.68-1.12 6.431-3.36 2.816-2.304 5.664-6.176 8.545-11.616l1.823 1.824c-2.368 5.248-5.312 9.504-8.831 12.768-3.52 3.264-7.073 4.896-10.657 4.896-2.623 0-4.575-.832-5.855-2.496-1.28-1.664-1.985-3.456-2.113-5.376v-.48c-2.56 3.072-4.928 5.504-7.104 7.296-2.112 1.792-4.384 2.688-6.816 2.688zm56.96-2.016c-2.368 0-4.288-.64-5.76-1.92-1.472-1.216-2.208-2.88-2.208-4.992 0-1.792.448-3.712 1.344-5.76a561.72 561.72 0 012.688-6.048c.96-1.984 1.44-3.744 1.44-5.28 0-1.472-.48-2.688-1.44-3.648a11.795 11.795 0 00-3.36-2.496 99.926 99.926 0 01-4.8 10.272c-1.728 3.264-3.136 5.824-4.224 7.68l-1.44-2.784c.896-1.664 2.08-4.032 3.552-7.104s2.88-6.496 4.224-10.272c-.64-.64-.96-1.504-.96-2.592 0-1.664.512-3.232 1.536-4.704 1.024-1.472 2.016-2.208 2.976-2.208.768 0 1.312.448 1.632 1.344.384.832.576 1.408.576 1.728 0 .32-.16.896-.48 1.728-.256.832-.448 1.44-.576 1.824.064.704.608 1.408 1.632 2.112a77.54 77.54 0 013.648 2.304 14.712 14.712 0 013.552 3.36c1.024 1.344 1.536 3.04 1.536 5.088 0 1.856-.416 3.744-1.248 5.664a108.553 108.553 0 01-2.496 5.376c-.832 1.664-1.248 3.104-1.248 4.32 0 .896.224 1.504.672 1.824.512.256 1.088.384 1.728.384 1.536 0 3.136-.448 4.8-1.344 1.664-.96 3.296-2.176 4.896-3.648a35.3 35.3 0 004.224-4.608c1.216-1.664 2.144-3.168 2.784-4.512l2.304 1.728c-1.216 2.752-2.976 5.472-5.28 8.16-2.304 2.624-4.864 4.8-7.68 6.528-2.816 1.664-5.664 2.496-8.544 2.496zm36.795 0c-2.368 0-4.288-.64-5.76-1.92-1.472-1.216-2.208-2.88-2.208-4.992 0-1.792.448-3.712 1.344-5.76a561.72 561.72 0 012.688-6.048c.96-1.984 1.44-3.744 1.44-5.28 0-1.472-.48-2.688-1.44-3.648a11.795 11.795 0 00-3.36-2.496 99.926 99.926 0 01-4.8 10.272c-1.728 3.264-3.136 5.824-4.224 7.68l-1.44-2.784c.896-1.664 2.08-4.032 3.552-7.104s2.88-6.496 4.224-10.272c-.64-.64-.96-1.504-.96-2.592 0-1.664.512-3.232 1.536-4.704 1.024-1.472 2.016-2.208 2.976-2.208.768 0 1.312.448 1.632 1.344.384.832.576 1.408.576 1.728 0 .32-.16.896-.48 1.728-.256.832-.448 1.44-.576 1.824.064.704.608 1.408 1.632 2.112a77.54 77.54 0 013.648 2.304 14.712 14.712 0 013.552 3.36c1.024 1.344 1.536 3.04 1.536 5.088 0 1.856-.416 3.744-1.248 5.664a108.553 108.553 0 01-2.496 5.376c-.832 1.664-1.248 3.104-1.248 4.32 0 .896.224 1.504.672 1.824.512.256 1.088.384 1.728.384 1.536 0 3.136-.448 4.8-1.344 1.664-.96 3.296-2.176 4.896-3.648a35.3 35.3 0 004.224-4.608c1.216-1.664 2.144-3.168 2.784-4.512l2.304 1.728c-1.216 2.752-2.976 5.472-5.28 8.16-2.304 2.624-4.864 4.8-7.68 6.528-2.816 1.664-5.664 2.496-8.544 2.496zm38.043-42.912a6.737 6.737 0 01-3.36-.864c-.96-.64-1.44-1.6-1.44-2.88 0-1.536.832-2.848 2.496-3.936 1.664-1.088 3.392-1.632 5.184-1.632 1.152 0 2.112.256 2.88.768.832.512 1.248 1.44 1.248 2.784 0 1.344-.736 2.656-2.208 3.936-1.472 1.216-3.072 1.824-4.8 1.824zM187.204 72.88c-2.816 0-4.928-.832-6.336-2.496-1.408-1.664-2.112-3.68-2.112-6.048 0-1.472.256-3.328.768-5.568.512-2.24 1.216-4.576 2.112-7.008a54.31 54.31 0 013.264-7.008c1.216-2.176 2.528-3.936 3.936-5.28 1.408-1.408 2.816-2.112 4.224-2.112.768 0 1.44.256 2.016.768.576.448.864 1.12.864 2.016 0 .832-.512 2.08-1.536 3.744a227.245 227.245 0 01-3.456 5.76 61.828 61.828 0 00-3.456 6.816c-.96 2.304-1.44 4.512-1.44 6.624 0 2.048.352 3.424 1.056 4.128.768.64 1.856.96 3.264.96 2.176 0 4.544-1.088 7.104-3.264 2.56-2.176 5.216-5.984 7.968-11.424l1.44 1.536c-2.24 5.632-5.088 10.016-8.544 13.152-3.456 3.136-7.168 4.704-11.136 4.704zm24.013.192c-2.88 0-4.864-.96-5.952-2.88-1.024-1.856-1.536-3.904-1.536-6.144 0-2.048.32-4.128.96-6.24a26.93 26.93 0 012.592-6.048c1.152-1.856 2.4-3.328 3.744-4.416 1.408-1.152 2.816-1.728 4.224-1.728.448 0 .96.096 1.536.288.64.128 1.088.352 1.344.672-1.024 1.28-2.08 2.944-3.168 4.992a41.292 41.292 0 00-2.592 6.24c-.64 2.176-.96 4.16-.96 5.952 0 1.28.224 2.336.672 3.168.512.832 1.376 1.248 2.592 1.248 1.216 0 2.656-.672 4.32-2.016a38.418 38.418 0 004.896-4.8c-2.048-1.856-3.52-3.872-4.416-6.048-.896-2.24-1.344-4.928-1.344-8.064 0-1.344.32-2.88.96-4.608.704-1.728 1.792-3.232 3.264-4.512 1.536-1.28 3.584-1.92 6.144-1.92 2.752 0 4.672.768 5.76 2.304 1.152 1.536 1.728 3.36 1.728 5.472 0 2.368-.64 5.024-1.92 7.968a49.518 49.518 0 01-4.416 8.352c.768.384 1.664.576 2.688.576.96 0 2.112-.224 3.456-.672 1.344-.448 2.656-1.184 3.936-2.208 1.28-1.088 2.304-2.528 3.072-4.32l1.728 1.248c-1.408 3.264-3.296 5.664-5.664 7.2-2.304 1.472-4.576 2.208-6.816 2.208-.832 0-1.664-.064-2.496-.192-.832-.192-1.6-.416-2.304-.672a37.504 37.504 0 01-7.488 6.72c-2.816 1.92-5.664 2.88-8.544 2.88zm15.168-14.784a41.163 41.163 0 003.936-7.2c1.088-2.56 1.632-4.928 1.632-7.104 0-2.816-.896-4.224-2.688-4.224-1.216 0-2.464.864-3.744 2.592-1.28 1.728-1.92 3.904-1.92 6.528 0 1.344.224 2.976.672 4.896.512 1.92 1.216 3.424 2.112 4.512zm66.993 20.064c-4.864 0-8.864-1.152-12-3.456-3.072-2.304-5.344-5.28-6.816-8.928a31.197 31.197 0 01-2.112-11.328c0-5.056.768-10.112 2.304-15.168a67.154 67.154 0 016.336-14.592c2.752-4.608 5.856-8.704 9.312-12.288 3.456-3.584 7.136-6.4 11.04-8.448C305.41 2.032 309.346.976 313.25.976c2.816 0 5.184.672 7.104 2.016 1.92 1.28 2.88 3.52 2.88 6.72 0 1.92-.352 4.064-1.056 6.432a35.113 35.113 0 01-2.688 6.912c-1.088 2.176-2.336 3.968-3.744 5.376-1.408 1.408-2.848 2.112-4.32 2.112-.64 0-1.312-.224-2.016-.672-.704-.448-1.344-1.216-1.92-2.304.96-1.088 2.048-2.4 3.264-3.936a69.027 69.027 0 003.456-4.992c1.088-1.792 1.984-3.52 2.688-5.184.704-1.728 1.056-3.232 1.056-4.512 0-1.152-.32-2.048-.96-2.688-.64-.704-1.76-1.056-3.36-1.056-2.816 0-5.728 1.056-8.736 3.168-2.944 2.112-5.792 4.96-8.544 8.544-2.752 3.52-5.248 7.488-7.488 11.904a73.805 73.805 0 00-5.184 13.536c-1.28 4.608-1.92 8.992-1.92 13.152 0 3.072.448 6.016 1.344 8.832.96 2.752 2.464 4.992 4.512 6.72 2.048 1.792 4.736 2.688 8.064 2.688 3.456 0 6.88-.96 10.272-2.88 3.456-1.92 6.592-4.448 9.408-7.584 2.88-3.136 5.184-6.496 6.912-10.08l2.496 1.632a60.156 60.156 0 01-8.064 11.808c-3.136 3.52-6.688 6.336-10.656 8.448-3.904 2.176-8.128 3.264-12.672 3.264zm39.68-4.128c-4.096 0-7.264-1.12-9.504-3.36-2.176-2.176-3.264-4.928-3.264-8.256 0-2.816.704-5.792 2.112-8.928 1.472-3.2 3.424-6.176 5.856-8.928 2.432-2.816 5.12-5.088 8.064-6.816 2.944-1.728 5.888-2.592 8.832-2.592 1.664 0 3.232.448 4.704 1.344 1.536.832 2.304 2.528 2.304 5.088 0 2.432-.704 4.704-2.112 6.816-1.408 2.112-3.296 4-5.664 5.664-2.368 1.664-4.992 3.04-7.872 4.128a36.832 36.832 0 01-8.544 2.016c-.064.256-.128.544-.192.864v1.344c0 .32.032.896.096 1.728.128.768.416 1.6.864 2.496.448.896 1.184 1.664 2.208 2.304 1.024.64 2.432.96 4.224.96 2.688 0 5.376-.736 8.064-2.208 2.752-1.536 5.312-3.552 7.68-6.048a35.224 35.224 0 006.048-8.352l1.92 1.536c-1.728 3.84-3.968 7.2-6.72 10.08-2.688 2.88-5.696 5.12-9.024 6.72-3.264 1.6-6.624 2.4-10.08 2.4zm-4.032-17.376c1.664-.192 3.52-.768 5.568-1.728 2.048-.96 4-2.176 5.856-3.648 1.92-1.472 3.488-3.072 4.704-4.8 1.216-1.792 1.824-3.584 1.824-5.376 0-.704-.128-1.184-.384-1.44s-.672-.384-1.248-.384c-1.472 0-3.008.544-4.608 1.632-1.6 1.024-3.168 2.4-4.704 4.128a33.054 33.054 0 00-4.128 5.568c-1.216 2.048-2.176 4.064-2.88 6.048zm59.887 15.072c-2.496 0-4.416-.64-5.76-1.92-1.28-1.216-1.92-2.784-1.92-4.704 0-1.28.224-2.624.672-4.032l1.344-4.416c.448-1.472.672-2.88.672-4.224 0-1.408-.352-2.368-1.056-2.88-.64-.576-1.408-.864-2.304-.864-1.92 0-3.904.8-5.952 2.4-1.984 1.536-3.936 3.488-5.856 5.856a102.75 102.75 0 00-5.28 7.392 203.27 203.27 0 00-4.32 6.912 8.987 8.987 0 01-3.456-.672c-1.088-.384-2.016-1.088-2.784-2.112.064-.32.448-1.28 1.152-2.88.64-1.664 1.376-3.616 2.208-5.856a78.851 78.851 0 002.208-7.2c.64-2.496.96-4.768.96-6.816.448-.512 1.12-1.024 2.016-1.536.96-.512 1.952-.768 2.976-.768 2.24 0 3.36.96 3.36 2.88 0 1.728-.544 4.576-1.632 8.544a57.127 57.127 0 015.472-6.336c1.984-1.984 4.032-3.584 6.144-4.8 2.176-1.28 4.352-1.92 6.528-1.92 2.752 0 4.768.928 6.048 2.784 1.344 1.856 2.016 3.904 2.016 6.144 0 1.92-.32 3.712-.96 5.376-.64 1.664-1.28 3.232-1.92 4.704-.576 1.472-.864 2.912-.864 4.32 0 1.024.224 1.76.672 2.208.512.384 1.056.576 1.632.576 1.536 0 3.136-.736 4.8-2.208 1.664-1.472 3.232-3.328 4.704-5.568a64.39 64.39 0 004.032-6.912l1.632 1.344c-1.344 3.136-2.88 6.016-4.608 8.64-1.664 2.56-3.552 4.64-5.664 6.24-2.048 1.536-4.352 2.304-6.912 2.304zm23.679 2.496c-2.816 0-5.088-.832-6.816-2.496-1.728-1.664-2.592-4.192-2.592-7.584 0-2.624.48-5.888 1.44-9.792 1.024-3.904 2.304-7.936 3.84-12.096a9.454 9.454 0 00-1.632-.288 9.128 9.128 0 01-1.728-.576v-2.976c1.024.128 1.856.224 2.496.288l2.112.192a136.89 136.89 0 014.32-9.792c1.6-3.2 3.168-6.048 4.704-8.544 1.6-2.496 3.104-4.448 4.512-5.856 1.408-1.472 2.656-2.208 3.744-2.208.64 0 1.248.256 1.824.768.576.448.864 1.12.864 2.016 0 1.28-.672 3.104-2.016 5.472-1.28 2.368-2.88 5.152-4.8 8.352a134.495 134.495 0 00-5.568 10.08h2.976c2.816 0 5.344-.032 7.584-.096 2.304-.128 4.64-.32 7.008-.576v3.168c-3.52.32-6.752.576-9.696.768-2.944.192-5.76.32-8.448.384h-1.152a97.041 97.041 0 00-3.552 9.696c-.96 3.264-1.44 6.464-1.44 9.6 0 2.624.416 4.48 1.248 5.568.832 1.088 2.144 1.632 3.936 1.632 3.2 0 6.464-1.44 9.792-4.32 3.392-2.944 6.336-6.912 8.832-11.904l1.344.96c-1.664 3.776-3.744 7.2-6.24 10.272-2.432 3.072-5.088 5.472-7.968 7.2-2.88 1.792-5.856 2.688-8.928 2.688zm38.6-1.92c-2.368 0-4.288-.64-5.76-1.92-1.472-1.216-2.208-2.88-2.208-4.992 0-1.792.448-3.712 1.344-5.76a561.72 561.72 0 012.688-6.048c.96-1.984 1.44-3.744 1.44-5.28 0-1.472-.48-2.688-1.44-3.648a11.795 11.795 0 00-3.36-2.496 99.926 99.926 0 01-4.8 10.272c-1.728 3.264-3.136 5.824-4.224 7.68l-1.44-2.784c.896-1.664 2.08-4.032 3.552-7.104s2.88-6.496 4.224-10.272c-.64-.64-.96-1.504-.96-2.592 0-1.664.512-3.232 1.536-4.704 1.024-1.472 2.016-2.208 2.976-2.208.768 0 1.312.448 1.632 1.344.384.832.576 1.408.576 1.728 0 .32-.16.896-.48 1.728-.256.832-.448 1.44-.576 1.824.064.704.608 1.408 1.632 2.112a77.54 77.54 0 013.648 2.304 14.712 14.712 0 013.552 3.36c1.024 1.344 1.536 3.04 1.536 5.088 0 1.856-.416 3.744-1.248 5.664a108.553 108.553 0 01-2.496 5.376c-.832 1.664-1.248 3.104-1.248 4.32 0 .896.224 1.504.672 1.824.512.256 1.088.384 1.728.384 1.536 0 3.136-.448 4.8-1.344 1.664-.96 3.296-2.176 4.896-3.648a35.3 35.3 0 004.224-4.608c1.216-1.664 2.144-3.168 2.784-4.512l2.304 1.728c-1.216 2.752-2.976 5.472-5.28 8.16-2.304 2.624-4.864 4.8-7.68 6.528-2.816 1.664-5.664 2.496-8.544 2.496zm25.372.576c-2.88 0-4.864-.96-5.952-2.88-1.024-1.856-1.536-3.904-1.536-6.144 0-2.048.32-4.128.96-6.24a26.93 26.93 0 012.592-6.048c1.152-1.856 2.4-3.328 3.744-4.416 1.408-1.152 2.816-1.728 4.224-1.728.448 0 .96.096 1.536.288.64.128 1.088.352 1.344.672-1.024 1.28-2.08 2.944-3.168 4.992a41.292 41.292 0 00-2.592 6.24c-.64 2.176-.96 4.16-.96 5.952 0 1.28.224 2.336.672 3.168.512.832 1.376 1.248 2.592 1.248 1.216 0 2.656-.672 4.32-2.016a38.418 38.418 0 004.896-4.8c-2.048-1.856-3.52-3.872-4.416-6.048-.896-2.24-1.344-4.928-1.344-8.064 0-1.344.32-2.88.96-4.608.704-1.728 1.792-3.232 3.264-4.512 1.536-1.28 3.584-1.92 6.144-1.92 2.752 0 4.672.768 5.76 2.304 1.152 1.536 1.728 3.36 1.728 5.472 0 2.368-.64 5.024-1.92 7.968a49.518 49.518 0 01-4.416 8.352c.768.384 1.664.576 2.688.576.96 0 2.112-.224 3.456-.672 1.344-.448 2.656-1.184 3.936-2.208 1.28-1.088 2.304-2.528 3.072-4.32l1.728 1.248c-1.408 3.264-3.296 5.664-5.664 7.2-2.304 1.472-4.576 2.208-6.816 2.208-.832 0-1.664-.064-2.496-.192-.832-.192-1.6-.416-2.304-.672a37.504 37.504 0 01-7.488 6.72c-2.816 1.92-5.664 2.88-8.544 2.88zm15.168-14.784a41.163 41.163 0 003.936-7.2c1.088-2.56 1.632-4.928 1.632-7.104 0-2.816-.896-4.224-2.688-4.224-1.216 0-2.464.864-3.744 2.592-1.28 1.728-1.92 3.904-1.92 6.528 0 1.344.224 2.976.672 4.896.512 1.92 1.216 3.424 2.112 4.512z" fill="url(#paint0_linear)"/><defs><linearGradient id="paint0_linear" x1="-58.963" y1=".721" x2="587.349" y2="80.393" gradientUnits="userSpaceOnUse"><stop/><stop offset="1" stop-color="#30F" stop-opacity=".7"/><stop offset="1" stop-opacity="0"/></linearGradient></defs></svg>